<svg version="1.2" xmlns="http://www.w3.org/2000/svg" viewBox="0 0 256 256" width="256" height="256"><style>.a{fill:#020101}.b{fill:#02c797}</style><path class="a" d="m0 128v128h256v-256h-256z"/><path class="b" d="m111.5 45.4c-2.2 0.8-5.7 2.1-7.8 3-2 0.9-6.7 4.6-10.3 8.4-3.7 3.7-9.2 10.1-12.4 14.2-3.1 4.1-8.2 11.3-11.2 16-3.1 4.7-8.7 14.3-12.6 21.5-3.9 7.2-9.5 18.6-12.5 25.5-3 6.9-7 17.2-9 23-1.9 5.8-4.7 15-6 20.5-1.4 5.5-2.9 12.5-3.2 15.5-0.6 4.5-0.3 6.3 1.4 9.8 1.1 2.3 2.5 4.2 3.1 4.2 0.5 0 1-0.1 1-0.2 0-0.2-0.9-2.1-2-4.3-1.1-2.2-2-5-2-6.2 0-1.3 1.1-4.7 2.3-7.5 1.3-2.9 5.9-10 10.2-15.8 4.3-5.8 14.7-17.3 22.9-25.5 8.3-8.3 19.8-18.9 25.6-23.5 5.8-4.6 13.4-10.2 17-12.5 3.6-2.3 8.1-4.7 10-5.3 1.9-0.6 5.5-1.4 8-1.7 2.5-0.4 6.7-0.1 9.5 0.5 2.8 0.7 7.7 2.7 11 4.5 3.3 1.8 10.1 6.4 15 10.3 4.9 3.8 13.5 10.9 18.9 15.8 5.5 4.9 15.1 14.5 21.4 21.4 6.3 6.9 13.5 15.4 16 19 2.5 3.6 5.8 9 7.4 12 1.5 3 2.8 6.6 2.8 8 0 1.4-0.7 4.5-1.6 7-1.4 4.2-1.4 4.4 0.1 3 0.9-0.8 2.1-3.1 2.7-5 0.6-2 0.8-5.7 0.4-8.5-0.4-2.7-1.6-8.8-2.7-13.5-1.2-4.7-3.4-12.6-4.9-17.5-1.6-4.9-5.1-14.4-7.8-21-2.7-6.6-7.2-16.5-10-22-2.7-5.5-7.3-14-10.2-19-2.9-5-8.2-13.3-11.8-18.5-3.5-5.2-9.2-12.7-12.5-16.5-3.3-3.9-7.6-8.5-9.6-10.3-2-1.8-5.4-4.2-7.6-5.4-2.2-1.2-6.2-2.7-9-3.4-2.8-0.8-9.7-1.4-15.5-1.3-5.8 0-12.3 0.6-14.5 1.3zm-10.5 111.4c-14 7-25.3 13.1-25.2 13.7 0.1 0.5 6.7 7.5 14.7 15.5 8 8 17.1 16.9 20.3 19.7 4.5 4.2 6.6 5.4 10.2 5.9 2.5 0.4 7.4 0.5 11 0.2 5.2-0.3 7.2-0.9 10-3.2 1.9-1.5 11.3-10.5 20.8-19.9 9.5-9.5 17.1-17.6 16.9-18.2-0.1-0.6-11.5-6.7-25.2-13.7-13.8-7-25.7-12.7-26.5-12.7-0.8 0-13 5.7-27 12.7z"/><path class="a" d="m136.9 190.5c-1.1 1.2-3.4 1.6-9.7 1.5-7.5 0-8.2 0.2-8.2 2 0 1.9 0.7 2 9.2 2 8.4 0 9.5-0.2 11.5-2.2 1.8-1.8 2-2.6 1-3.6-0.6-0.7-1.5-1.2-1.8-1.2-0.4 0-1.3 0.7-2 1.5z"/></svg>